<svg xmlns="http://www.w3.org/2000/svg" width="255" height="179" viewBox="0 0 255 179" version="1.1"><path d="M -0 90.011 L -0 179.008 127.750 178.754 L 255.500 178.500 255.755 89.500 L 256.011 0.500 128.005 0.758 L 0 1.015 -0 90.011 M 0.479 90 C 0.479 139.225, 0.601 159.362, 0.750 134.750 C 0.899 110.137, 0.899 69.862, 0.750 45.250 C 0.601 20.637, 0.479 40.775, 0.479 90 M 200 43.262 L 200 51.858 194.636 52.972 C 191.686 53.584, 187.003 55.529, 184.231 57.293 C 178.701 60.811, 171 69.472, 171 72.173 C 171 73.113, 170.621 74.116, 170.157 74.403 C 169.693 74.690, 168.290 78.373, 167.038 82.589 C 162.256 98.697, 168.605 110, 182.433 110 C 188.672 110, 193.420 114.196, 195.578 121.619 C 196.442 124.593, 197.502 126.808, 197.933 126.542 C 198.755 126.034, 199.981 136.373, 199.993 143.917 C 200.005 151.740, 201.233 147.387, 201.957 136.954 C 202.343 131.385, 203.144 126.529, 203.738 126.162 C 204.331 125.795, 205.145 123.696, 205.547 121.498 C 206.053 118.733, 207.482 116.344, 210.181 113.750 C 213.509 110.553, 214.746 110, 218.574 110 C 224.666 110, 229.197 107.919, 232.482 103.613 L 235.227 100.013 234.846 89.757 L 234.464 79.500 230.642 72.500 C 228.541 68.650, 225.471 64.087, 223.821 62.360 C 219.912 58.269, 212.159 54.093, 206.777 53.179 L 202.500 52.453 202 44.305 C 201.324 33.295, 200 32.605, 200 43.262 M 198.158 60 C 198.158 61.375, 198.385 61.938, 198.662 61.250 C 198.940 60.563, 198.940 59.438, 198.662 58.750 C 198.385 58.063, 198.158 58.625, 198.158 60 M 198.432 90 C 198.432 103.475, 198.574 108.987, 198.747 102.250 C 198.920 95.513, 198.920 84.487, 198.747 77.750 C 198.574 71.013, 198.432 76.525, 198.432 90 M 254.458 108 C 254.458 131.375, 254.589 140.938, 254.749 129.250 C 254.909 117.563, 254.909 98.438, 254.749 86.750 C 254.589 75.063, 254.458 84.625, 254.458 108 M 50 82.427 C 50 84.302, 49.477 85, 48.071 85 C 45.020 85, 43 87.788, 43 92 C 43 96.954, 45.078 99, 50.109 99 L 54.075 99 53.788 89.761 C 53.543 81.893, 53.240 80.473, 51.750 80.188 C 50.450 79.939, 50 80.515, 50 82.427 M 21.246 82.154 C 20.497 82.903, 20 86.099, 20 90.165 C 20 97.464, 21.084 99, 26.234 99 C 29.596 99, 31 97.173, 31 92.800 L 31 89 28 89 C 25.667 89, 25 89.444, 25 91 C 25 92.111, 25.667 93, 26.500 93 C 27.325 93, 28 93.675, 28 94.500 C 28 96.497, 24.379 96.430, 23.607 94.418 C 23.273 93.548, 23 91.059, 23 88.887 C 23 83.913, 25.418 82.577, 28.066 86.087 L 29.876 88.487 30.597 86.608 C 30.994 85.574, 30.864 84.002, 30.308 83.114 C 29.057 81.115, 22.933 80.467, 21.246 82.154 M 89 90 C 89 97.333, 89.278 99, 90.500 99 C 91.583 99, 92 97.889, 92 95 L 92 91 95 91 L 98 91 98 95 C 98 97.889, 98.417 99, 99.500 99 C 100.722 99, 101 97.333, 101 90 C 101 82.667, 100.722 81, 99.500 81 C 98.452 81, 98 82.056, 98 84.500 L 98 88 95 88 L 92 88 92 84.500 C 92 82.056, 91.548 81, 90.500 81 C 89.278 81, 89 82.667, 89 90 M 121.556 81.910 C 121.247 82.410, 121.253 83.497, 121.571 84.325 C 122.046 85.563, 121.426 85.733, 118.074 85.283 L 114 84.737 114 91.868 L 114 99 115.948 99 C 117.588 99, 117.943 98.184, 118.198 93.829 C 118.613 86.722, 120.798 86.246, 121.195 93.175 C 121.431 97.287, 121.894 98.556, 123.250 98.814 L 125 99.147 125 90.073 C 125 82.840, 124.708 81, 123.559 81 C 122.766 81, 121.865 81.409, 121.556 81.910 M 78 83.071 C 78 84.805, 75.210 87.149, 74.505 86.008 C 73.552 84.466, 69.334 84.809, 67.571 86.571 C 66.614 87.529, 66 89.881, 66 92.593 C 66 96.333, 66.387 97.219, 68.426 98.148 C 71.457 99.529, 76 98.481, 76 96.401 C 76 95.188, 75.333 94.988, 73 95.500 C 71.207 95.894, 70 95.751, 70 95.146 C 70 94.589, 71.237 93.990, 72.750 93.816 C 74.910 93.568, 75.568 92.910, 75.816 90.750 C 76.351 86.100, 77.878 87.703, 78.198 93.250 L 78.500 98.500 80.750 98.820 C 82.263 99.034, 83 98.625, 83 97.570 C 83 96.706, 82.550 96, 82 96 C 81.450 96, 81 94.200, 81 92 C 81 89.800, 81.450 88, 82 88 C 82.550 88, 83 87.325, 83 86.500 C 83 85.675, 82.550 85, 82 85 C 81.450 85, 81 84.325, 81 83.500 C 81 82.675, 80.325 82, 79.500 82 C 78.675 82, 78 82.482, 78 83.071 M 34.200 86.200 C 33.540 86.860, 33 87.985, 33 88.700 C 33 89.415, 33.540 90, 34.200 90 C 35.133 90, 35.133 90.267, 34.200 91.200 C 32.657 92.743, 32.657 96.257, 34.200 97.800 C 34.860 98.460, 36.885 99, 38.700 99 L 42 99 42 93.200 C 42 87.028, 40.887 85, 37.500 85 C 36.345 85, 34.860 85.540, 34.200 86.200 M 55.941 87.111 C 55.306 88.297, 55.062 91.035, 55.383 93.361 C 55.697 95.637, 56.077 98.625, 56.227 100 C 56.440 101.947, 57.153 102.574, 59.451 102.836 C 63.744 103.324, 65 100.942, 65 92.309 L 65 85 61.035 85 C 58.024 85, 56.799 85.508, 55.941 87.111 M 104.464 86.403 C 101.792 88.357, 101.792 95.643, 104.464 97.597 C 106.815 99.317, 110.190 99.410, 111.800 97.800 C 113.356 96.244, 113.356 87.756, 111.800 86.200 C 110.190 84.590, 106.815 84.683, 104.464 86.403 M 126 86.500 C 126 87.424, 126.938 88, 128.442 88 L 130.884 88 128.454 92.250 C 125.015 98.264, 125.238 99, 130.500 99 C 133.833 99, 135 98.611, 135 97.500 C 135 96.667, 134.111 96, 133 96 C 130.528 96, 130.528 95.822, 132.996 91.774 C 136.259 86.424, 135.734 85, 130.500 85 C 127.167 85, 126 85.389, 126 86.500 M 137.571 86.571 C 136.686 87.457, 136 89.827, 136 92 C 136 96.408, 138.042 99, 141.515 99 C 144.328 99, 147 95.590, 147 92 C 147 86.230, 141.233 82.910, 137.571 86.571 M 148 92 C 148 97.443, 148.322 99, 149.448 99 C 150.489 99, 150.980 97.527, 151.198 93.750 C 151.578 87.139, 153.399 87.305, 153.802 93.987 C 154.017 97.557, 154.521 99, 155.552 99 C 156.638 99, 157 97.644, 157 93.582 C 157 85.895, 156.467 85, 151.893 85 L 148 85 148 92 M 36.500 89 C 36.160 89.550, 36.610 90, 37.500 90 C 38.390 90, 38.840 89.550, 38.500 89 C 38.160 88.450, 37.710 88, 37.500 88 C 37.290 88, 36.840 88.450, 36.500 89 M 47.454 89.260 C 46.595 91.497, 47.299 95.544, 48.500 95.281 C 49.050 95.161, 49.648 93.868, 49.828 92.409 C 50.219 89.247, 48.390 86.820, 47.454 89.260 M 58.390 89.427 C 57.554 91.604, 58.347 95.293, 59.750 95.755 C 60.613 96.039, 61 94.903, 61 92.083 C 61 88.104, 59.488 86.565, 58.390 89.427 M 70 89 C 70 89.550, 70.450 90, 71 90 C 71.550 90, 72 89.550, 72 89 C 72 88.450, 71.550 88, 71 88 C 70.450 88, 70 88.450, 70 89 M 106.390 89.427 C 105.576 91.548, 106.333 95.288, 107.665 95.727 C 108.306 95.938, 109.124 95.185, 109.483 94.055 C 110.734 90.112, 107.807 85.733, 106.390 89.427 M 140.454 89.260 C 139.595 91.497, 140.299 95.544, 141.500 95.281 C 142.050 95.161, 142.648 93.868, 142.828 92.409 C 143.219 89.247, 141.390 86.820, 140.454 89.260 M 36.459 94.067 C 36.096 94.653, 36.040 95.373, 36.333 95.667 C 37.050 96.383, 39 95.121, 39 93.941 C 39 92.663, 37.274 92.748, 36.459 94.067 M 58.813 99.683 C 59.534 99.972, 60.397 99.936, 60.729 99.604 C 61.061 99.272, 60.471 99.036, 59.417 99.079 C 58.252 99.127, 58.015 99.364, 58.813 99.683 M 192.500 109 C 192.160 109.550, 192.359 110, 192.941 110 C 193.523 110, 194 109.550, 194 109 C 194 108.450, 193.802 108, 193.559 108 C 193.316 108, 192.840 108.450, 192.500 109 M 207 109 C 207 109.550, 207.477 110, 208.059 110 C 208.641 110, 208.840 109.550, 208.500 109 C 208.160 108.450, 207.684 108, 207.441 108 C 207.198 108, 207 108.450, 207 109" stroke="none" fill="#ffffff" fill-rule="evenodd"/><path d="M 200.630 43 C 200.924 47.675, 201.315 52, 201.498 52.610 C 201.680 53.221, 203.781 53.959, 206.165 54.250 C 208.549 54.541, 211.400 55.061, 212.500 55.405 C 213.600 55.749, 213.150 55.369, 211.500 54.560 C 209.850 53.752, 207.037 53.070, 205.250 53.045 L 202 53 201.930 45.750 C 201.891 41.763, 201.462 37.600, 200.977 36.500 C 200.427 35.253, 200.296 37.700, 200.630 43 M 189.250 54.491 C 187.463 55.268, 186 56.166, 186 56.487 C 186 56.808, 186.921 56.577, 188.047 55.975 C 189.172 55.373, 191.985 54.506, 194.297 54.049 C 197.785 53.360, 197.990 53.207, 195.500 53.149 C 193.850 53.110, 191.037 53.714, 189.250 54.491 M 217.500 58.125 C 219.150 59.375, 222.264 62.221, 224.420 64.449 C 227.619 67.754, 227.948 67.929, 226.206 65.396 C 224.192 62.467, 219.325 58.275, 216 56.605 C 215.175 56.191, 215.850 56.875, 217.500 58.125 M 191 58.500 C 191 59.530, 191.655 60.020, 192.750 59.810 C 194.858 59.404, 194.725 57.629, 192.553 57.177 C 191.647 56.988, 191 57.539, 191 58.500 M 197 62.696 L 197 68.392 193.702 65.196 C 191.889 63.438, 190.164 62, 189.869 62 C 188.557 62, 189.441 65.699, 191.221 67.661 L 193.182 69.822 192.841 80.933 C 192.562 90.009, 192.729 91.730, 193.750 90.331 C 194.536 89.254, 195 85.191, 195 79.386 L 195 70.153 192.311 66.827 L 189.622 63.500 193.311 66.946 L 197 70.392 197 81.696 L 197 93 194.622 93 C 193.315 93, 191.716 93.638, 191.069 94.417 C 189.782 95.968, 180.604 96.450, 181.552 94.917 C 181.863 94.413, 183.167 94, 184.448 94 C 185.730 94, 187.835 93.144, 189.127 92.098 L 191.476 90.196 191.844 82.089 C 192.047 77.631, 191.942 72.907, 191.612 71.591 C 190.527 67.269, 181.770 65.949, 180.723 69.950 C 180.129 72.222, 181.684 75, 183.550 75 C 184.347 75, 185 75.873, 185 76.941 C 185 78.009, 185.450 79.160, 186 79.500 C 186.568 79.851, 187 79.002, 187 77.534 C 187 75.698, 186.276 74.675, 184.500 74 C 181.111 72.711, 181.050 69, 184.418 69 C 189.747 69, 190 69.500, 190 80.050 L 190 89.887 187.777 91.443 C 186.555 92.299, 184.274 93, 182.708 93 C 180.327 93, 179.913 93.369, 180.180 95.250 L 180.500 97.500 186 98.067 C 193.448 98.835, 197 100.675, 197 103.764 L 197 106.207 193.465 103.104 C 190.469 100.473, 189.129 100, 184.665 100 C 181.769 100, 178.804 99.438, 178.075 98.750 C 177.006 97.741, 176.838 97.789, 177.205 99 C 177.510 100.005, 180.107 100.885, 185.080 101.667 L 192.500 102.833 185.248 102.667 C 181.259 102.575, 177.997 102.838, 177.998 103.250 C 177.999 103.662, 181.290 104, 185.311 104 C 191.388 104, 193.009 104.360, 194.907 106.128 L 197.192 108.257 196.966 116.378 C 196.669 127.082, 196.777 127.988, 198.085 125.742 C 198.648 124.775, 198.823 123.522, 198.474 122.958 C 197.694 121.696, 197.772 59.177, 198.556 57.910 C 198.865 57.409, 198.641 57, 198.059 57 C 197.438 57, 197 59.354, 197 62.696 M 202 92.723 C 202 123.029, 202.205 128.146, 203.351 126.473 C 204.094 125.388, 205.007 123.150, 205.381 121.500 C 205.877 119.312, 205.786 118.906, 205.046 120 C 204.301 121.100, 204.027 119.989, 204.015 115.832 C 204.007 112.714, 203.703 109.339, 203.341 108.332 C 202.978 107.324, 203.038 106.823, 203.475 107.217 C 203.911 107.612, 205.393 107.049, 206.769 105.967 C 208.710 104.440, 210.822 104, 216.212 104 L 223.154 104 226.077 101.077 C 229.938 97.216, 229.765 95.153, 225.208 90.703 C 219.838 85.459, 218.685 86.084, 223.908 91.407 C 228.426 96.010, 228.470 96.537, 224.677 100.750 C 222.938 102.682, 221.648 103, 215.548 103 C 210.626 103, 207.737 103.496, 206.138 104.616 L 203.830 106.232 204.165 103.866 C 204.606 100.751, 210.149 98.004, 216 98.001 L 220.500 97.999 220.644 95.499 C 220.767 93.376, 220.353 93, 217.894 93 C 212.540 93, 211 90.140, 211 80.200 C 211 74.689, 211.448 70.952, 212.200 70.200 C 213.755 68.645, 218.715 68.646, 219.234 70.201 C 219.544 71.132, 219.800 71.133, 220.373 70.205 C 221.705 68.051, 216.662 66.574, 213.363 68.152 L 210.500 69.521 210.206 78.511 C 210.044 83.455, 210.138 88.405, 210.415 89.510 C 210.986 91.791, 215.862 94.965, 217.750 94.284 C 218.438 94.036, 219 94.321, 219 94.917 C 219 95.513, 217.283 96, 215.185 96 L 211.370 96 209.685 92.466 C 208.478 89.934, 208 86.286, 208 79.601 L 208 70.270 210.188 67.385 L 212.376 64.500 209.688 66.924 L 207 69.349 207 79.974 C 207 86.905, 207.417 91.017, 208.200 91.800 C 209.133 92.733, 208.744 93.020, 206.450 93.090 L 203.500 93.180 206.750 94.119 C 208.537 94.635, 210 95.505, 210 96.053 C 210 97.128, 205.016 99.349, 204.273 98.606 C 204.025 98.358, 203.875 91.937, 203.940 84.337 L 204.057 70.517 208.237 66.259 C 213.101 61.302, 212.671 60.594, 207.535 65.104 L 204 68.207 204 62.604 C 204 59.522, 203.550 57, 203 57 C 202.352 57, 202 69.574, 202 92.723 M 207.572 57.750 C 208.069 58.163, 208.813 58.950, 209.223 59.500 C 209.649 60.071, 209.976 59.749, 209.985 58.750 C 209.993 57.777, 209.260 57, 208.333 57 C 207.417 57, 207.074 57.337, 207.572 57.750 M 178.356 62.250 C 173.826 66.992, 170.998 70.923, 171.004 72.473 C 171.006 73.038, 171.949 71.925, 173.100 70 C 174.251 68.075, 177.043 64.588, 179.304 62.250 C 181.566 59.913, 183.191 58, 182.916 58 C 182.641 58, 180.589 59.913, 178.356 62.250 M 182.625 62.798 C 181.744 64.223, 183.754 66.308, 185.399 65.677 C 187.659 64.810, 187.399 62, 185.059 62 C 183.991 62, 182.896 62.359, 182.625 62.798 M 194.500 63 C 194.840 63.550, 195.316 64, 195.559 64 C 195.802 64, 196 63.550, 196 63 C 196 62.450, 195.523 62, 194.941 62 C 194.359 62, 194.160 62.450, 194.500 63 M 213.570 62.887 C 212.817 64.105, 215.665 66.325, 216.956 65.527 C 218.727 64.432, 218.109 62, 216.059 62 C 214.991 62, 213.871 62.399, 213.570 62.887 M 215 64.059 C 215 64.641, 215.450 64.840, 216 64.500 C 216.550 64.160, 217 63.684, 217 63.441 C 217 63.198, 216.550 63, 216 63 C 215.450 63, 215 63.477, 215 64.059 M 176.016 70.707 C 174.622 72.480, 174.086 74.205, 174.463 75.707 C 174.859 77.287, 174.599 78, 173.626 78 C 171.982 78, 171.031 79.996, 171.415 82.642 C 171.644 84.222, 172.757 84.544, 178.842 84.794 L 186 85.088 185.884 82.794 C 185.798 81.100, 185.648 80.958, 185.311 82.250 C 184.929 83.712, 183.753 83.981, 178.177 83.885 C 172.770 83.792, 172.172 83.638, 175.034 83.078 C 180.389 82.028, 181.478 81.089, 179.310 79.389 L 177.500 77.969 180.141 78.566 C 181.593 78.894, 183.013 78.788, 183.295 78.331 C 183.578 77.874, 182.164 77.500, 180.155 77.500 C 177.099 77.500, 176.446 77.122, 176.173 75.192 C 175.993 73.923, 176.566 71.785, 177.446 70.442 C 179.594 67.163, 178.669 67.335, 176.016 70.707 M 223.218 68.500 C 223.408 69.050, 224.200 70.772, 224.978 72.328 C 226.563 75.498, 225.710 77.785, 222.294 79.521 C 220.599 80.383, 220.501 80.744, 221.666 81.833 C 222.435 82.551, 224.478 82.945, 226.274 82.722 L 229.500 82.320 226.250 82.160 C 222.604 81.981, 221.928 80.475, 225.048 79.485 C 227.288 78.774, 230 80.468, 230 82.579 C 230 83.536, 227.954 84.010, 222.750 84.257 L 215.500 84.603 223.250 84.801 L 231 85 231 82.508 C 231 81.100, 230.131 79.474, 229 78.768 C 227.818 78.030, 227 76.436, 227 74.870 C 227 73.413, 226.071 71.159, 224.936 69.861 C 223.800 68.562, 223.027 67.950, 223.218 68.500 M 229.976 72.751 C 231.112 75.089, 232.677 79.364, 233.455 82.251 C 234.232 85.138, 234.898 86.504, 234.934 85.288 C 235.017 82.517, 231.515 73.029, 229.454 70.440 C 228.536 69.286, 228.747 70.222, 229.976 72.751 M 184.500 71 C 184.840 71.550, 185.316 72, 185.559 72 C 185.802 72, 186 71.550, 186 71 C 186 70.450, 185.523 70, 184.941 70 C 184.359 70, 184.160 70.450, 184.500 71 M 216 71 C 216 71.550, 216.450 72, 217 72 C 217.550 72, 218 71.550, 218 71 C 218 70.450, 217.550 70, 217 70 C 216.450 70, 216 70.450, 216 71 M 219 72.941 C 219 73.523, 218.294 74, 217.430 74 C 214.819 74, 216.084 78.441, 218.805 78.827 C 221.210 79.168, 224 77.500, 224 75.723 C 224 75.155, 223.117 75.489, 222.037 76.466 C 220.947 77.453, 219.363 77.969, 218.474 77.628 C 216.627 76.920, 217.420 75, 219.559 75 C 221.209 75, 221.488 73.420, 220 72.500 C 219.450 72.160, 219 72.359, 219 72.941 M 187.427 82 C 186.299 87.896, 186.430 88.970, 188.077 87.323 C 188.651 86.749, 188.977 84.079, 188.800 81.390 L 188.480 76.500 187.427 82 M 213 82.667 C 213 85.783, 213.275 88.058, 213.611 87.722 C 214.708 86.625, 215.062 77, 214.006 77 C 213.450 77, 213 79.533, 213 82.667 M 173 80.500 C 173 81.628, 173.702 82.039, 175.250 81.820 C 176.488 81.644, 177.500 81.050, 177.500 80.500 C 177.500 79.950, 176.488 79.356, 175.250 79.180 C 173.702 78.961, 173 79.372, 173 80.500 M 50.688 80.646 C 50.309 81.024, 50 82.158, 50 83.167 C 50 84.293, 49.276 85, 48.122 85 C 47.090 85, 45.649 85.787, 44.921 86.750 C 43.794 88.239, 43.806 88.313, 44.998 87.250 C 45.769 86.563, 47.435 86, 48.700 86 C 50.487 86, 51 85.442, 51 83.500 C 51 82.125, 51.450 81, 52 81 C 52.588 81, 53 84.500, 53 89.500 L 53 98 49.559 98 C 45.722 98, 44.927 97.158, 43.922 92.034 L 43.230 88.500 43.115 91.527 C 42.931 96.381, 45.507 99.166, 49.845 98.805 L 53.500 98.500 53.500 89.583 C 53.500 81.323, 52.665 78.669, 50.688 80.646 M 182.500 81 C 182.160 81.550, 182.359 82, 182.941 82 C 183.523 82, 184 81.550, 184 81 C 184 80.450, 183.802 80, 183.559 80 C 183.316 80, 182.840 80.450, 182.500 81 M 216.510 81.016 C 216.856 81.575, 217.557 81.774, 218.069 81.457 C 219.456 80.600, 219.198 80, 217.441 80 C 216.584 80, 216.165 80.457, 216.510 81.016 M 24.269 81.693 C 25.242 81.947, 26.592 81.930, 27.269 81.656 C 27.946 81.382, 27.150 81.175, 25.500 81.195 C 23.850 81.215, 23.296 81.439, 24.269 81.693 M 89 90 L 89 99 90.750 98.921 C 91.795 98.874, 91.997 98.639, 91.250 98.338 C 90.399 97.994, 90 95.331, 90 90 C 90 84.669, 90.399 82.006, 91.250 81.662 C 91.997 81.361, 91.795 81.126, 90.750 81.079 L 89 81 89 90 M 98.813 81.683 C 99.534 81.972, 100.397 81.936, 100.729 81.604 C 101.061 81.272, 100.471 81.036, 99.417 81.079 C 98.252 81.127, 98.015 81.364, 98.813 81.683 M 121.701 81.750 C 121.472 82.162, 121.333 86.092, 121.392 90.482 C 121.484 97.288, 121.762 98.515, 123.280 98.811 L 125.059 99.158 124.914 90.079 C 124.806 83.279, 124.437 81, 123.444 81 C 122.715 81, 121.931 81.338, 121.701 81.750 M 20.459 83.067 C 20.096 83.653, 20.014 84.348, 20.276 84.610 C 20.538 84.872, 21.019 84.392, 21.345 83.543 C 22.021 81.781, 21.445 81.471, 20.459 83.067 M 29.825 84.674 C 30.251 86.767, 30.503 87.019, 30.794 85.644 C 31.011 84.623, 30.751 83.351, 30.218 82.818 C 29.592 82.192, 29.452 82.849, 29.825 84.674 M 79.943 84.169 C 81.406 85.740, 81.675 86.687, 80.917 87.599 C 80.342 88.293, 80.049 90.579, 80.267 92.680 L 80.664 96.500 80.832 92.250 C 80.924 89.912, 81.450 88, 82 88 C 82.550 88, 83 87.325, 83 86.500 C 83 85.675, 82.550 85, 82 85 C 81.450 85, 81 84.325, 81 83.500 C 81 82.675, 80.307 82, 79.461 82 C 78.224 82, 78.318 82.425, 79.943 84.169 M 122.500 83 C 122.840 83.550, 123.316 84, 123.559 84 C 123.802 84, 124 83.550, 124 83 C 124 82.450, 123.523 82, 122.941 82 C 122.359 82, 122.160 82.450, 122.500 83 M 166.158 86 C 166.158 87.375, 166.385 87.938, 166.662 87.250 C 166.940 86.563, 166.940 85.438, 166.662 84.750 C 166.385 84.063, 166.158 84.625, 166.158 86 M 34.652 85.754 C 34.396 86.169, 35.607 86.506, 37.343 86.504 L 40.500 86.500 41.100 91 L 41.700 95.500 41.850 91.450 C 41.932 89.223, 41.460 86.860, 40.800 86.200 C 39.470 84.870, 35.381 84.574, 34.652 85.754 M 56.589 85.856 C 56.298 86.326, 57.172 86.499, 58.530 86.239 C 59.889 85.979, 61 85.594, 61 85.383 C 61 84.610, 57.101 85.027, 56.589 85.856 M 62.696 85.700 C 63.355 86.168, 64.067 89.465, 64.279 93.026 L 64.666 99.500 64.583 92.580 C 64.520 87.325, 64.139 85.562, 63 85.254 C 61.946 84.968, 61.856 85.101, 62.696 85.700 M 69.750 85.662 C 70.438 85.940, 71.563 85.940, 72.250 85.662 C 72.938 85.385, 72.375 85.158, 71 85.158 C 69.625 85.158, 69.063 85.385, 69.750 85.662 M 107.741 85.705 C 108.974 85.942, 110.661 87.106, 111.491 88.291 C 112.321 89.476, 113 89.927, 113 89.294 C 113 87.353, 109.979 84.992, 107.679 85.136 L 105.500 85.272 107.741 85.705 M 114.412 86.369 C 114.123 87.122, 114.024 90.156, 114.193 93.110 C 114.424 97.156, 114.908 98.559, 116.154 98.796 C 117.498 99.051, 117.873 98.084, 118.154 93.648 C 118.344 90.644, 118.162 88.396, 117.750 88.652 C 117.338 88.908, 117 91.116, 117 93.559 C 117 96.002, 116.550 98, 116 98 C 115.446 98, 115 95.355, 115 92.066 L 115 86.133 117.750 85.716 L 120.500 85.300 117.719 85.150 C 116.169 85.066, 114.704 85.606, 114.412 86.369 M 126.015 86.750 C 126.025 87.907, 126.284 88.102, 126.778 87.324 C 127.190 86.678, 129.320 85.966, 131.513 85.743 L 135.500 85.336 130.750 85.168 C 126.824 85.029, 126.003 85.303, 126.015 86.750 M 137.655 86.829 C 136.745 87.835, 136 90.240, 136 92.174 C 136 98.338, 142.225 101.372, 145.443 96.777 C 150.081 90.156, 142.921 81.010, 137.655 86.829 M 148 85.827 C 148 86.282, 149.423 86.445, 151.163 86.189 C 153.449 85.854, 154.696 86.232, 155.663 87.554 C 156.398 88.559, 157 88.936, 157 88.391 C 157 86.455, 154.554 85, 151.300 85 C 149.485 85, 148 85.372, 148 85.827 M 22.015 89.583 C 22.024 91.737, 22.425 94.123, 22.908 94.885 C 23.444 95.732, 23.581 94.371, 23.259 91.385 C 22.604 85.293, 21.995 84.411, 22.015 89.583 M 122 92 C 122 95.333, 122.444 98, 123 98 C 123.556 98, 124 95.333, 124 92 C 124 88.667, 123.556 86, 123 86 C 122.444 86, 122 88.667, 122 92 M 138.243 87.157 C 136.538 88.862, 136.675 95.485, 138.445 96.954 C 142.567 100.375, 147.436 95.002, 145.425 89.250 C 144.357 86.196, 140.367 85.033, 138.243 87.157 M 69.688 87.646 C 68.272 89.061, 69.073 91, 71.073 91 C 72.471 91, 73.041 90.457, 72.823 89.333 C 72.466 87.492, 70.759 86.574, 69.688 87.646 M 75.558 88.250 C 74.520 91.667, 74.268 93.952, 74.978 93.514 C 75.413 93.245, 75.968 91.669, 76.212 90.012 C 76.656 86.982, 76.264 85.925, 75.558 88.250 M 176.134 91.392 C 172.837 94.640, 171.925 96.188, 172.409 97.715 C 173.175 100.127, 177 103.827, 177 102.155 C 177 101.520, 176.622 101, 176.161 101 C 175.338 101, 172.647 95.978, 173.213 95.497 C 180.901 88.955, 182.882 87.008, 181.811 87.045 C 181.090 87.070, 178.535 89.026, 176.134 91.392 M 33 89.087 C 33 89.589, 33.505 90, 34.122 90 C 34.857 90, 34.771 90.605, 33.872 91.750 L 32.500 93.500 34 92.358 C 34.825 91.729, 36.334 91.054, 37.353 90.858 C 38.776 90.583, 38.485 90.230, 36.103 89.337 C 34.396 88.697, 33 88.585, 33 89.087 M 46.667 88.667 C 45.756 89.577, 45.821 94.771, 46.750 95.345 C 47.163 95.600, 47.500 94.052, 47.500 91.905 C 47.500 89.757, 47.462 88, 47.417 88 C 47.371 88, 47.033 88.300, 46.667 88.667 M 61.272 92 C 61.272 94.475, 61.467 95.487, 61.706 94.250 C 61.944 93.013, 61.944 90.987, 61.706 89.750 C 61.467 88.513, 61.272 89.525, 61.272 92 M 66.272 92 C 66.272 94.475, 66.467 95.487, 66.706 94.250 C 66.944 93.013, 66.944 90.987, 66.706 89.750 C 66.467 88.513, 66.272 89.525, 66.272 92 M 70 89 C 70 89.550, 70.450 90, 71 90 C 71.550 90, 72 89.550, 72 89 C 72 88.450, 71.550 88, 71 88 C 70.450 88, 70 88.450, 70 89 M 93.250 88.689 C 94.213 88.941, 95.787 88.941, 96.750 88.689 C 97.713 88.438, 96.925 88.232, 95 88.232 C 93.075 88.232, 92.287 88.438, 93.250 88.689 M 130.381 89.250 C 129.976 89.938, 129.002 91.625, 128.217 93 L 126.789 95.500 128.468 93.500 C 130.499 91.080, 132.250 88, 131.594 88 C 131.332 88, 130.786 88.563, 130.381 89.250 M 132.097 91.560 C 130.942 93.518, 130.451 94.840, 131.005 94.497 C 132.089 93.827, 135.335 88, 134.624 88 C 134.390 88, 133.252 89.602, 132.097 91.560 M 139.272 92 C 139.272 94.475, 139.467 95.487, 139.706 94.250 C 139.944 93.013, 139.944 90.987, 139.706 89.750 C 139.467 88.513, 139.272 89.525, 139.272 92 M 169.597 88.844 C 169.251 89.404, 169.455 90.163, 170.050 90.531 C 171.588 91.481, 172.580 90.180, 171.296 88.896 C 170.578 88.178, 170.019 88.161, 169.597 88.844 M 174.079 88.710 C 174.036 89.375, 172.815 91.018, 171.367 92.361 C 168.141 95.352, 168.612 98.458, 172.951 102.797 C 175.800 105.646, 181 107.626, 181 105.861 C 181 105.388, 180.065 105, 178.923 105 C 176.152 105, 171 99.727, 171 96.891 C 171 95.647, 171.948 93.620, 173.107 92.386 C 174.266 91.152, 174.977 89.548, 174.686 88.821 C 174.323 87.912, 174.133 87.877, 174.079 88.710 M 226.030 88.945 C 226.014 89.740, 227.148 91.589, 228.551 93.054 L 231.103 95.717 229.413 99.261 C 227.793 102.657, 224.544 105, 221.453 105 C 220.654 105, 220 105.480, 220 106.067 C 220 108.878, 228.468 103.929, 230.551 99.901 C 232.474 96.183, 232.378 94.384, 230.173 92.807 C 229.168 92.088, 227.832 90.600, 227.203 89.500 C 226.449 88.179, 226.050 87.991, 226.030 88.945 M 26.250 89.689 C 27.212 89.941, 28.788 89.941, 29.750 89.689 C 30.712 89.438, 29.925 89.232, 28 89.232 C 26.075 89.232, 25.288 89.438, 26.250 89.689 M 50.232 92 C 50.232 93.925, 50.438 94.713, 50.689 93.750 C 50.941 92.787, 50.941 91.213, 50.689 90.250 C 50.438 89.287, 50.232 90.075, 50.232 92 M 143.232 92 C 143.232 93.925, 143.438 94.713, 143.689 93.750 C 143.941 92.787, 143.941 91.213, 143.689 90.250 C 143.438 89.287, 143.232 90.075, 143.232 92 M 165.122 91.500 C 164.965 95.749, 166.742 101.544, 168.692 103.142 L 170.349 104.500 168.696 101.959 C 167.787 100.561, 166.636 96.961, 166.139 93.959 C 165.563 90.487, 165.193 89.592, 165.122 91.500 M 105.158 92 C 105.158 93.375, 105.385 93.938, 105.662 93.250 C 105.940 92.563, 105.940 91.438, 105.662 90.750 C 105.385 90.063, 105.158 90.625, 105.158 92 M 25 91.243 C 25 91.415, 25.900 92.326, 27 93.268 C 28.100 94.210, 29 94.551, 29 94.025 C 29 93.500, 28.100 92.589, 27 92 C 25.900 91.411, 25 91.070, 25 91.243 M 35.872 93.750 L 34.500 95.500 36.500 94.033 C 37.600 93.226, 38.688 92.439, 38.917 92.283 C 39.146 92.127, 38.863 92, 38.289 92 C 37.715 92, 36.627 92.787, 35.872 93.750 M 69.079 94.583 C 69.127 95.748, 69.364 95.985, 69.683 95.188 C 69.972 94.466, 69.936 93.603, 69.604 93.271 C 69.272 92.939, 69.036 93.529, 69.079 94.583 M 111.204 96.045 C 110.532 97.120, 109.012 98, 107.825 98 C 106.638 98, 105.946 98.279, 106.287 98.620 C 107.367 99.700, 111.753 98.086, 112.413 96.366 C 113.335 93.964, 112.621 93.775, 111.204 96.045 M 193.250 94.662 C 191.195 95.491, 191.830 97.601, 194.500 98.818 L 197 99.957 197 96.979 C 197 94.096, 196.072 93.523, 193.250 94.662 M 21.405 96.750 C 22.568 98.123, 24.321 98.947, 25.905 98.864 L 28.500 98.728 26 98.273 C 24.625 98.022, 22.600 97.071, 21.500 96.159 L 19.500 94.500 21.405 96.750 M 73.972 95.962 L 75.444 96.892 73.972 97.388 C 73.162 97.660, 71.600 98.082, 70.500 98.325 C 68.967 98.665, 69.114 98.795, 71.128 98.884 C 72.573 98.948, 74.256 98.396, 74.869 97.658 C 76.037 96.251, 75.423 94.989, 73.583 95.015 C 72.987 95.024, 73.162 95.450, 73.972 95.962 M 78.403 97.225 C 78.543 97.926, 79.634 98.644, 80.828 98.820 C 82.399 99.051, 82.978 98.636, 82.921 97.320 C 82.875 96.269, 82.629 96.029, 82.338 96.750 C 81.729 98.258, 79.366 98.402, 78.658 96.975 C 78.379 96.411, 78.264 96.524, 78.403 97.225 M 126.015 97.250 C 126.003 98.697, 126.824 98.971, 130.750 98.832 L 135.500 98.664 131.513 98.257 C 129.320 98.034, 127.190 97.322, 126.778 96.676 C 126.284 95.898, 126.025 96.093, 126.015 97.250 M 56.333 98.683 C 56.333 100.177, 59.510 101.421, 60.991 100.506 C 62.819 99.376, 62.045 98.234, 59.167 97.811 C 57.307 97.538, 56.333 97.838, 56.333 98.683 M 99 98 C 97.718 98.828, 97.754 98.972, 99.250 98.985 C 100.213 98.993, 101 98.550, 101 98 C 101 96.780, 100.887 96.780, 99 98 M 148 98.167 C 148 98.625, 148.675 99, 149.500 99 C 150.325 99, 151 98.625, 151 98.167 C 151 97.708, 150.325 97.333, 149.500 97.333 C 148.675 97.333, 148 97.708, 148 98.167 M 154 98.031 C 154 98.564, 154.675 99, 155.500 99 C 156.325 99, 157 98.823, 157 98.607 C 157 98.391, 156.325 97.955, 155.500 97.638 C 154.675 97.322, 154 97.499, 154 98.031 M 232.500 101.331 C 231.285 103.781, 229.133 106.077, 227.016 107.182 C 225.099 108.182, 224.130 109, 224.861 109 C 228.290 109, 235.851 100.702, 234.811 98.082 C 234.640 97.651, 233.600 99.114, 232.500 101.331 M 36.762 98.707 C 38.006 98.946, 39.806 98.937, 40.762 98.687 C 41.718 98.437, 40.700 98.241, 38.500 98.252 C 36.300 98.263, 35.518 98.468, 36.762 98.707 M 222 99 C 222 99.554, 219.353 100, 216.059 100 C 212.634 100, 209.815 100.491, 209.402 101.159 C 208.317 102.913, 221.088 101.341, 222.936 99.492 C 223.954 98.474, 224.043 98, 223.214 98 C 222.546 98, 222 98.450, 222 99 M 58.813 99.683 C 59.534 99.972, 60.397 99.936, 60.729 99.604 C 61.061 99.272, 60.471 99.036, 59.417 99.079 C 58.252 99.127, 58.015 99.364, 58.813 99.683 M 203 101.059 C 203 101.641, 203.450 101.840, 204 101.500 C 204.550 101.160, 205 100.684, 205 100.441 C 205 100.198, 204.550 100, 204 100 C 203.450 100, 203 100.477, 203 101.059 M 62 102 C 61.099 102.582, 60.975 102.975, 61.691 102.985 C 62.346 102.993, 63.160 102.550, 63.500 102 C 64.267 100.758, 63.921 100.758, 62 102 M 173 107.500 C 174.375 108.286, 175.950 108.929, 176.500 108.929 C 177.050 108.929, 176.375 108.286, 175 107.500 C 173.625 106.714, 172.050 106.071, 171.500 106.071 C 170.950 106.071, 171.625 106.714, 173 107.500 M 191.446 108.087 C 190.416 109.755, 192.733 111.667, 194.113 110.287 C 195.267 109.133, 194.545 107, 193 107 C 192.515 107, 191.816 107.489, 191.446 108.087 M 206.446 108.087 C 205.416 109.755, 207.733 111.667, 209.113 110.287 C 210.267 109.133, 209.545 107, 208 107 C 207.515 107, 206.816 107.489, 206.446 108.087 M 192 109 C 192 109.550, 192.450 110, 193 110 C 193.550 110, 194 109.550, 194 109 C 194 108.450, 193.550 108, 193 108 C 192.450 108, 192 108.450, 192 109 M 207 109 C 207 109.550, 207.450 110, 208 110 C 208.550 110, 209 109.550, 209 109 C 209 108.450, 208.550 108, 208 108 C 207.450 108, 207 108.450, 207 109 M 180.250 109.689 C 181.213 109.941, 182.787 109.941, 183.750 109.689 C 184.713 109.438, 183.925 109.232, 182 109.232 C 180.075 109.232, 179.287 109.438, 180.250 109.689 M 217.762 109.707 C 219.006 109.946, 220.806 109.937, 221.762 109.687 C 222.718 109.437, 221.700 109.241, 219.500 109.252 C 217.300 109.263, 216.518 109.468, 217.762 109.707 M 208.924 113.750 L 206.500 116.500 209.250 114.076 C 211.820 111.810, 212.459 111, 211.674 111 C 211.495 111, 210.258 112.237, 208.924 113.750 M 193.638 116.500 C 195.950 120.448, 196 120.507, 196 119.277 C 196 118.697, 195.073 117.159, 193.941 115.861 L 191.881 113.500 193.638 116.500 M 199.286 130.500 C 199.294 133.250, 199.488 134.256, 199.718 132.736 C 199.947 131.216, 199.941 128.966, 199.704 127.736 C 199.467 126.506, 199.279 127.750, 199.286 130.500 M 201.272 139 C 201.272 141.475, 201.467 142.488, 201.706 141.250 C 201.944 140.012, 201.944 137.988, 201.706 136.750 C 201.467 135.512, 201.272 136.525, 201.272 139 M 200.079 145.583 C 200.127 146.748, 200.364 146.985, 200.683 146.188 C 200.972 145.466, 200.936 144.603, 200.604 144.271 C 200.272 143.939, 200.036 144.529, 200.079 145.583" stroke="none" fill="#f2f7f7" fill-rule="evenodd"/><path d="M -0 90.011 L -0 179.008 127.750 178.754 L 255.500 178.500 255.755 89.500 L 256.011 0.500 128.005 0.758 L 0 1.015 -0 90.011 M 0.479 90 C 0.479 139.225, 0.601 159.362, 0.750 134.750 C 0.899 110.137, 0.899 69.862, 0.750 45.250 C 0.601 20.637, 0.479 40.775, 0.479 90 M 200 43.262 L 200 51.858 194.636 52.972 C 191.686 53.584, 187.003 55.529, 184.231 57.293 C 178.701 60.811, 171 69.472, 171 72.173 C 171 73.113, 170.621 74.116, 170.157 74.403 C 169.693 74.690, 168.290 78.373, 167.038 82.589 C 162.256 98.697, 168.605 110, 182.433 110 C 188.672 110, 193.420 114.196, 195.578 121.619 C 196.442 124.593, 197.502 126.808, 197.933 126.542 C 198.755 126.034, 199.981 136.373, 199.993 143.917 C 200.005 151.740, 201.233 147.387, 201.957 136.954 C 202.343 131.385, 203.144 126.529, 203.738 126.162 C 204.331 125.795, 205.145 123.696, 205.547 121.498 C 206.053 118.733, 207.482 116.344, 210.181 113.750 C 213.509 110.553, 214.746 110, 218.574 110 C 224.666 110, 229.197 107.919, 232.482 103.613 L 235.227 100.013 234.846 89.757 L 234.464 79.500 230.642 72.500 C 228.541 68.650, 225.471 64.087, 223.821 62.360 C 219.912 58.269, 212.159 54.093, 206.777 53.179 L 202.500 52.453 202 44.305 C 201.324 33.295, 200 32.605, 200 43.262 M 198.158 60 C 198.158 61.375, 198.385 61.938, 198.662 61.250 C 198.940 60.563, 198.940 59.438, 198.662 58.750 C 198.385 58.063, 198.158 58.625, 198.158 60 M 198.432 90 C 198.432 103.475, 198.574 108.987, 198.747 102.250 C 198.920 95.513, 198.920 84.487, 198.747 77.750 C 198.574 71.013, 198.432 76.525, 198.432 90 M 254.458 108 C 254.458 131.375, 254.589 140.938, 254.749 129.250 C 254.909 117.563, 254.909 98.438, 254.749 86.750 C 254.589 75.063, 254.458 84.625, 254.458 108 M 50 82.427 C 50 84.302, 49.477 85, 48.071 85 C 45.020 85, 43 87.788, 43 92 C 43 96.954, 45.078 99, 50.109 99 L 54.075 99 53.788 89.761 C 53.543 81.893, 53.240 80.473, 51.750 80.188 C 50.450 79.939, 50 80.515, 50 82.427 M 21.246 82.154 C 20.497 82.903, 20 86.099, 20 90.165 C 20 97.464, 21.084 99, 26.234 99 C 29.596 99, 31 97.173, 31 92.800 L 31 89 28 89 C 25.667 89, 25 89.444, 25 91 C 25 92.111, 25.667 93, 26.500 93 C 27.325 93, 28 93.675, 28 94.500 C 28 96.497, 24.379 96.430, 23.607 94.418 C 23.273 93.548, 23 91.059, 23 88.887 C 23 83.913, 25.418 82.577, 28.066 86.087 L 29.876 88.487 30.597 86.608 C 30.994 85.574, 30.864 84.002, 30.308 83.114 C 29.057 81.115, 22.933 80.467, 21.246 82.154 M 89 90 C 89 97.333, 89.278 99, 90.500 99 C 91.583 99, 92 97.889, 92 95 L 92 91 95 91 L 98 91 98 95 C 98 97.889, 98.417 99, 99.500 99 C 100.722 99, 101 97.333, 101 90 C 101 82.667, 100.722 81, 99.500 81 C 98.452 81, 98 82.056, 98 84.500 L 98 88 95 88 L 92 88 92 84.500 C 92 82.056, 91.548 81, 90.500 81 C 89.278 81, 89 82.667, 89 90 M 121.556 81.910 C 121.247 82.410, 121.253 83.497, 121.571 84.325 C 122.046 85.563, 121.426 85.733, 118.074 85.283 L 114 84.737 114 91.868 L 114 99 115.948 99 C 117.588 99, 117.943 98.184, 118.198 93.829 C 118.613 86.722, 120.798 86.246, 121.195 93.175 C 121.431 97.287, 121.894 98.556, 123.250 98.814 L 125 99.147 125 90.073 C 125 82.840, 124.708 81, 123.559 81 C 122.766 81, 121.865 81.409, 121.556 81.910 M 78 83.071 C 78 84.805, 75.210 87.149, 74.505 86.008 C 73.552 84.466, 69.334 84.809, 67.571 86.571 C 66.614 87.529, 66 89.881, 66 92.593 C 66 96.333, 66.387 97.219, 68.426 98.148 C 71.457 99.529, 76 98.481, 76 96.401 C 76 95.188, 75.333 94.988, 73 95.500 C 71.207 95.894, 70 95.751, 70 95.146 C 70 94.589, 71.237 93.990, 72.750 93.816 C 74.910 93.568, 75.568 92.910, 75.816 90.750 C 76.351 86.100, 77.878 87.703, 78.198 93.250 L 78.500 98.500 80.750 98.820 C 82.263 99.034, 83 98.625, 83 97.570 C 83 96.706, 82.550 96, 82 96 C 81.450 96, 81 94.200, 81 92 C 81 89.800, 81.450 88, 82 88 C 82.550 88, 83 87.325, 83 86.500 C 83 85.675, 82.550 85, 82 85 C 81.450 85, 81 84.325, 81 83.500 C 81 82.675, 80.325 82, 79.500 82 C 78.675 82, 78 82.482, 78 83.071 M 34.200 86.200 C 33.540 86.860, 33 87.985, 33 88.700 C 33 89.415, 33.540 90, 34.200 90 C 35.133 90, 35.133 90.267, 34.200 91.200 C 32.657 92.743, 32.657 96.257, 34.200 97.800 C 34.860 98.460, 36.885 99, 38.700 99 L 42 99 42 93.200 C 42 87.028, 40.887 85, 37.500 85 C 36.345 85, 34.860 85.540, 34.200 86.200 M 55.941 87.111 C 55.306 88.297, 55.062 91.035, 55.383 93.361 C 55.697 95.637, 56.077 98.625, 56.227 100 C 56.440 101.947, 57.153 102.574, 59.451 102.836 C 63.744 103.324, 65 100.942, 65 92.309 L 65 85 61.035 85 C 58.024 85, 56.799 85.508, 55.941 87.111 M 104.464 86.403 C 101.792 88.357, 101.792 95.643, 104.464 97.597 C 106.815 99.317, 110.190 99.410, 111.800 97.800 C 113.356 96.244, 113.356 87.756, 111.800 86.200 C 110.190 84.590, 106.815 84.683, 104.464 86.403 M 126 86.500 C 126 87.424, 126.938 88, 128.442 88 L 130.884 88 128.454 92.250 C 125.015 98.264, 125.238 99, 130.500 99 C 133.833 99, 135 98.611, 135 97.500 C 135 96.667, 134.111 96, 133 96 C 130.528 96, 130.528 95.822, 132.996 91.774 C 136.259 86.424, 135.734 85, 130.500 85 C 127.167 85, 126 85.389, 126 86.500 M 137.571 86.571 C 136.686 87.457, 136 89.827, 136 92 C 136 96.408, 138.042 99, 141.515 99 C 144.328 99, 147 95.590, 147 92 C 147 86.230, 141.233 82.910, 137.571 86.571 M 148 92 C 148 97.443, 148.322 99, 149.448 99 C 150.489 99, 150.980 97.527, 151.198 93.750 C 151.578 87.139, 153.399 87.305, 153.802 93.987 C 154.017 97.557, 154.521 99, 155.552 99 C 156.638 99, 157 97.644, 157 93.582 C 157 85.895, 156.467 85, 151.893 85 L 148 85 148 92 M 36.500 89 C 36.160 89.550, 36.610 90, 37.500 90 C 38.390 90, 38.840 89.550, 38.500 89 C 38.160 88.450, 37.710 88, 37.500 88 C 37.290 88, 36.840 88.450, 36.500 89 M 47.454 89.260 C 46.595 91.497, 47.299 95.544, 48.500 95.281 C 49.050 95.161, 49.648 93.868, 49.828 92.409 C 50.219 89.247, 48.390 86.820, 47.454 89.260 M 58.390 89.427 C 57.554 91.604, 58.347 95.293, 59.750 95.755 C 60.613 96.039, 61 94.903, 61 92.083 C 61 88.104, 59.488 86.565, 58.390 89.427 M 70 89 C 70 89.550, 70.450 90, 71 90 C 71.550 90, 72 89.550, 72 89 C 72 88.450, 71.550 88, 71 88 C 70.450 88, 70 88.450, 70 89 M 106.390 89.427 C 105.576 91.548, 106.333 95.288, 107.665 95.727 C 108.306 95.938, 109.124 95.185, 109.483 94.055 C 110.734 90.112, 107.807 85.733, 106.390 89.427 M 140.454 89.260 C 139.595 91.497, 140.299 95.544, 141.500 95.281 C 142.050 95.161, 142.648 93.868, 142.828 92.409 C 143.219 89.247, 141.390 86.820, 140.454 89.260 M 36.459 94.067 C 36.096 94.653, 36.040 95.373, 36.333 95.667 C 37.050 96.383, 39 95.121, 39 93.941 C 39 92.663, 37.274 92.748, 36.459 94.067 M 58.813 99.683 C 59.534 99.972, 60.397 99.936, 60.729 99.604 C 61.061 99.272, 60.471 99.036, 59.417 99.079 C 58.252 99.127, 58.015 99.364, 58.813 99.683 M 192.500 109 C 192.160 109.550, 192.359 110, 192.941 110 C 193.523 110, 194 109.550, 194 109 C 194 108.450, 193.802 108, 193.559 108 C 193.316 108, 192.840 108.450, 192.500 109 M 207 109 C 207 109.550, 207.477 110, 208.059 110 C 208.641 110, 208.840 109.550, 208.500 109 C 208.160 108.450, 207.684 108, 207.441 108 C 207.198 108, 207 108.450, 207 109" stroke="none" fill="#ffffff" fill-rule="evenodd"/><path d="M -0 90.011 L -0 179.008 127.750 178.754 L 255.500 178.500 255.755 89.500 L 256.011 0.500 128.005 0.758 L 0 1.015 -0 90.011 M 0.479 90 C 0.479 139.225, 0.601 159.362, 0.750 134.750 C 0.899 110.137, 0.899 69.862, 0.750 45.250 C 0.601 20.637, 0.479 40.775, 0.479 90 M 200 43.262 L 200 51.858 194.636 52.972 C 191.686 53.584, 187.003 55.529, 184.231 57.293 C 178.701 60.811, 171 69.472, 171 72.173 C 171 73.113, 170.621 74.116, 170.157 74.403 C 169.693 74.690, 168.290 78.373, 167.038 82.589 C 162.256 98.697, 168.605 110, 182.433 110 C 188.672 110, 193.420 114.196, 195.578 121.619 C 196.442 124.593, 197.502 126.808, 197.933 126.542 C 198.755 126.034, 199.981 136.373, 199.993 143.917 C 200.005 151.740, 201.233 147.387, 201.957 136.954 C 202.343 131.385, 203.144 126.529, 203.738 126.162 C 204.331 125.795, 205.145 123.696, 205.547 121.498 C 206.053 118.733, 207.482 116.344, 210.181 113.750 C 213.509 110.553, 214.746 110, 218.574 110 C 224.666 110, 229.197 107.919, 232.482 103.613 L 235.227 100.013 234.846 89.757 L 234.464 79.500 230.642 72.500 C 228.541 68.650, 225.471 64.087, 223.821 62.360 C 219.912 58.269, 212.159 54.093, 206.777 53.179 L 202.500 52.453 202 44.305 C 201.324 33.295, 200 32.605, 200 43.262 M 198.158 60 C 198.158 61.375, 198.385 61.938, 198.662 61.250 C 198.940 60.563, 198.940 59.438, 198.662 58.750 C 198.385 58.063, 198.158 58.625, 198.158 60 M 198.432 90 C 198.432 103.475, 198.574 108.987, 198.747 102.250 C 198.920 95.513, 198.920 84.487, 198.747 77.750 C 198.574 71.013, 198.432 76.525, 198.432 90 M 254.458 108 C 254.458 131.375, 254.589 140.938, 254.749 129.250 C 254.909 117.563, 254.909 98.438, 254.749 86.750 C 254.589 75.063, 254.458 84.625, 254.458 108 M 50 82.427 C 50 84.302, 49.477 85, 48.071 85 C 45.020 85, 43 87.788, 43 92 C 43 96.954, 45.078 99, 50.109 99 L 54.075 99 53.788 89.761 C 53.543 81.893, 53.240 80.473, 51.750 80.188 C 50.450 79.939, 50 80.515, 50 82.427 M 21.246 82.154 C 20.497 82.903, 20 86.099, 20 90.165 C 20 97.464, 21.084 99, 26.234 99 C 29.596 99, 31 97.173, 31 92.800 L 31 89 28 89 C 25.667 89, 25 89.444, 25 91 C 25 92.111, 25.667 93, 26.500 93 C 27.325 93, 28 93.675, 28 94.500 C 28 96.497, 24.379 96.430, 23.607 94.418 C 23.273 93.548, 23 91.059, 23 88.887 C 23 83.913, 25.418 82.577, 28.066 86.087 L 29.876 88.487 30.597 86.608 C 30.994 85.574, 30.864 84.002, 30.308 83.114 C 29.057 81.115, 22.933 80.467, 21.246 82.154 M 89 90 C 89 97.333, 89.278 99, 90.500 99 C 91.583 99, 92 97.889, 92 95 L 92 91 95 91 L 98 91 98 95 C 98 97.889, 98.417 99, 99.500 99 C 100.722 99, 101 97.333, 101 90 C 101 82.667, 100.722 81, 99.500 81 C 98.452 81, 98 82.056, 98 84.500 L 98 88 95 88 L 92 88 92 84.500 C 92 82.056, 91.548 81, 90.500 81 C 89.278 81, 89 82.667, 89 90 M 121.556 81.910 C 121.247 82.410, 121.253 83.497, 121.571 84.325 C 122.046 85.563, 121.426 85.733, 118.074 85.283 L 114 84.737 114 91.868 L 114 99 115.948 99 C 117.588 99, 117.943 98.184, 118.198 93.829 C 118.613 86.722, 120.798 86.246, 121.195 93.175 C 121.431 97.287, 121.894 98.556, 123.250 98.814 L 125 99.147 125 90.073 C 125 82.840, 124.708 81, 123.559 81 C 122.766 81, 121.865 81.409, 121.556 81.910 M 78 83.071 C 78 84.805, 75.210 87.149, 74.505 86.008 C 73.552 84.466, 69.334 84.809, 67.571 86.571 C 66.614 87.529, 66 89.881, 66 92.593 C 66 96.333, 66.387 97.219, 68.426 98.148 C 71.457 99.529, 76 98.481, 76 96.401 C 76 95.188, 75.333 94.988, 73 95.500 C 71.207 95.894, 70 95.751, 70 95.146 C 70 94.589, 71.237 93.990, 72.750 93.816 C 74.910 93.568, 75.568 92.910, 75.816 90.750 C 76.351 86.100, 77.878 87.703, 78.198 93.250 L 78.500 98.500 80.750 98.820 C 82.263 99.034, 83 98.625, 83 97.570 C 83 96.706, 82.550 96, 82 96 C 81.450 96, 81 94.200, 81 92 C 81 89.800, 81.450 88, 82 88 C 82.550 88, 83 87.325, 83 86.500 C 83 85.675, 82.550 85, 82 85 C 81.450 85, 81 84.325, 81 83.500 C 81 82.675, 80.325 82, 79.500 82 C 78.675 82, 78 82.482, 78 83.071 M 34.200 86.200 C 33.540 86.860, 33 87.985, 33 88.700 C 33 89.415, 33.540 90, 34.200 90 C 35.133 90, 35.133 90.267, 34.200 91.200 C 32.657 92.743, 32.657 96.257, 34.200 97.800 C 34.860 98.460, 36.885 99, 38.700 99 L 42 99 42 93.200 C 42 87.028, 40.887 85, 37.500 85 C 36.345 85, 34.860 85.540, 34.200 86.200 M 55.941 87.111 C 55.306 88.297, 55.062 91.035, 55.383 93.361 C 55.697 95.637, 56.077 98.625, 56.227 100 C 56.440 101.947, 57.153 102.574, 59.451 102.836 C 63.744 103.324, 65 100.942, 65 92.309 L 65 85 61.035 85 C 58.024 85, 56.799 85.508, 55.941 87.111 M 104.464 86.403 C 101.792 88.357, 101.792 95.643, 104.464 97.597 C 106.815 99.317, 110.190 99.410, 111.800 97.800 C 113.356 96.244, 113.356 87.756, 111.800 86.200 C 110.190 84.590, 106.815 84.683, 104.464 86.403 M 126 86.500 C 126 87.424, 126.938 88, 128.442 88 L 130.884 88 128.454 92.250 C 125.015 98.264, 125.238 99, 130.500 99 C 133.833 99, 135 98.611, 135 97.500 C 135 96.667, 134.111 96, 133 96 C 130.528 96, 130.528 95.822, 132.996 91.774 C 136.259 86.424, 135.734 85, 130.500 85 C 127.167 85, 126 85.389, 126 86.500 M 137.571 86.571 C 136.686 87.457, 136 89.827, 136 92 C 136 96.408, 138.042 99, 141.515 99 C 144.328 99, 147 95.590, 147 92 C 147 86.230, 141.233 82.910, 137.571 86.571 M 148 92 C 148 97.443, 148.322 99, 149.448 99 C 150.489 99, 150.980 97.527, 151.198 93.750 C 151.578 87.139, 153.399 87.305, 153.802 93.987 C 154.017 97.557, 154.521 99, 155.552 99 C 156.638 99, 157 97.644, 157 93.582 C 157 85.895, 156.467 85, 151.893 85 L 148 85 148 92 M 36.500 89 C 36.160 89.550, 36.610 90, 37.500 90 C 38.390 90, 38.840 89.550, 38.500 89 C 38.160 88.450, 37.710 88, 37.500 88 C 37.290 88, 36.840 88.450, 36.500 89 M 47.454 89.260 C 46.595 91.497, 47.299 95.544, 48.500 95.281 C 49.050 95.161, 49.648 93.868, 49.828 92.409 C 50.219 89.247, 48.390 86.820, 47.454 89.260 M 58.390 89.427 C 57.554 91.604, 58.347 95.293, 59.750 95.755 C 60.613 96.039, 61 94.903, 61 92.083 C 61 88.104, 59.488 86.565, 58.390 89.427 M 70 89 C 70 89.550, 70.450 90, 71 90 C 71.550 90, 72 89.550, 72 89 C 72 88.450, 71.550 88, 71 88 C 70.450 88, 70 88.450, 70 89 M 106.390 89.427 C 105.576 91.548, 106.333 95.288, 107.665 95.727 C 108.306 95.938, 109.124 95.185, 109.483 94.055 C 110.734 90.112, 107.807 85.733, 106.390 89.427 M 140.454 89.260 C 139.595 91.497, 140.299 95.544, 141.500 95.281 C 142.050 95.161, 142.648 93.868, 142.828 92.409 C 143.219 89.247, 141.390 86.820, 140.454 89.260 M 36.459 94.067 C 36.096 94.653, 36.040 95.373, 36.333 95.667 C 37.050 96.383, 39 95.121, 39 93.941 C 39 92.663, 37.274 92.748, 36.459 94.067 M 58.813 99.683 C 59.534 99.972, 60.397 99.936, 60.729 99.604 C 61.061 99.272, 60.471 99.036, 59.417 99.079 C 58.252 99.127, 58.015 99.364, 58.813 99.683 M 192.500 109 C 192.160 109.550, 192.359 110, 192.941 110 C 193.523 110, 194 109.550, 194 109 C 194 108.450, 193.802 108, 193.559 108 C 193.316 108, 192.840 108.450, 192.500 109 M 207 109 C 207 109.550, 207.477 110, 208.059 110 C 208.641 110, 208.840 109.550, 208.500 109 C 208.160 108.450, 207.684 108, 207.441 108 C 207.198 108, 207 108.450, 207 109" stroke="none" fill="#ffffff" fill-rule="evenodd"/><path d="M 63.828 0.750 C 99.208 0.896, 156.808 0.896, 191.828 0.750 C 226.847 0.604, 197.900 0.485, 127.500 0.485 C 57.100 0.485, 28.447 0.604, 63.828 0.750 M 200.173 46.643 C 199.992 53.080, 199.313 53.989, 194.668 54.010 C 193.476 54.015, 190.250 55.072, 187.500 56.358 C 172.048 63.586, 161.400 89.594, 168.742 102.178 C 170.820 105.738, 176.676 109, 180.992 109 C 187.491 109, 194.203 113.758, 195.973 119.619 C 196.586 121.651, 196.828 119.362, 196.792 111.852 L 196.742 101.203 194.121 99.919 C 192.679 99.212, 189.025 98.379, 186 98.067 L 180.500 97.500 180.180 95.250 C 179.913 93.369, 180.327 93, 182.708 93 C 184.274 93, 186.555 92.299, 187.777 91.443 L 190 89.887 190 80.050 C 190 69.500, 189.747 69, 184.418 69 C 180.973 69, 181.126 72.717, 184.627 74.048 L 187.254 75.047 186.638 78.774 C 186.299 80.823, 186.017 83.063, 186.011 83.750 C 186.003 84.638, 183.827 85, 178.500 85 L 171 85 171 83.082 C 171 80.090, 172.080 78, 173.626 78 C 174.610 78, 174.859 77.285, 174.446 75.641 C 174.018 73.937, 174.592 72.479, 176.512 70.391 C 178.728 67.980, 178.906 67.911, 177.585 69.973 C 175.795 72.764, 175.499 76.573, 177 77.500 C 177.550 77.840, 178 77.586, 178 76.937 C 178 76.052, 178.373 76.065, 179.487 76.989 C 180.305 77.668, 181.679 77.954, 182.539 77.623 C 183.504 77.253, 183.850 77.433, 183.443 78.092 C 183.079 78.681, 181.706 78.892, 180.391 78.562 C 179.076 78.232, 178 78.180, 178 78.446 C 178 79.532, 181.964 80.951, 183.428 80.389 C 185.427 79.622, 185.531 75, 183.550 75 C 181.684 75, 180.129 72.222, 180.723 69.950 C 181.770 65.949, 190.527 67.269, 191.612 71.591 C 191.942 72.907, 192.047 77.631, 191.844 82.089 L 191.476 90.196 189.127 92.098 C 187.835 93.144, 185.730 94, 184.448 94 C 183.167 94, 181.863 94.413, 181.552 94.917 C 180.604 96.450, 189.782 95.968, 191.069 94.417 C 191.716 93.637, 193.315 93, 194.622 93 L 197 93 197 81.696 L 197 70.392 193.311 66.946 L 189.622 63.500 192.311 66.827 L 195 70.153 195 79.386 C 195 85.191, 194.536 89.254, 193.750 90.331 C 192.729 91.730, 192.562 90.009, 192.841 80.933 L 193.182 69.822 191.221 67.661 C 189.441 65.699, 188.557 62, 189.869 62 C 190.164 62, 191.889 63.438, 193.702 65.196 L 197 68.392 197 62.696 C 197 59.563, 197.450 57, 198 57 C 198.644 57, 199 67.614, 199 86.842 C 199 103.255, 199.326 122.942, 199.725 130.592 C 200.904 153.230, 201.788 138.876, 201.901 95.250 C 201.965 70.483, 202.352 57, 203 57 C 203.550 57, 204 59.522, 204 62.604 L 204 68.207 207.535 65.104 C 212.684 60.583, 213.096 61.307, 208.208 66.288 L 204 70.576 204 81.788 L 204 93 206.700 93 C 208.800 93, 209.133 92.733, 208.200 91.800 C 207.417 91.017, 207 86.905, 207 79.974 L 207 69.349 209.688 66.924 L 212.376 64.500 210.188 67.385 L 208 70.270 208 79.601 C 208 86.286, 208.478 89.934, 209.685 92.466 L 211.370 96 215.185 96 C 217.283 96, 219 95.513, 219 94.917 C 219 94.321, 218.438 94.036, 217.750 94.284 C 215.862 94.965, 210.986 91.791, 210.415 89.510 C 210.138 88.405, 210.044 83.455, 210.206 78.511 L 210.500 69.521 213.363 68.152 C 217.503 66.172, 221 67.924, 221 71.979 C 221 73.943, 220.496 75, 219.559 75 C 217.420 75, 216.627 76.920, 218.474 77.628 C 219.363 77.969, 220.947 77.453, 222.037 76.466 C 223.117 75.489, 224 75.155, 224 75.723 C 224 77.500, 221.210 79.168, 218.805 78.827 C 216.170 78.453, 214.804 74, 217.323 74 C 218.965 74, 219.929 72.141, 219.269 70.250 C 218.713 68.656, 213.779 68.621, 212.200 70.200 C 211.448 70.952, 211 74.689, 211 80.200 C 211 90.194, 212.535 93, 218 93 C 220.533 93, 221 93.389, 221 95.500 L 221 98 216.250 98.002 C 210.176 98.004, 204.613 100.703, 204.165 103.866 L 203.830 106.232 206.138 104.616 C 207.737 103.496, 210.626 103, 215.548 103 C 221.648 103, 222.938 102.682, 224.677 100.750 C 228.421 96.591, 228.403 95.997, 224.412 91.910 C 221.297 88.720, 219.895 88, 216.797 88 L 213 88 213 82.500 C 213 79.325, 213.444 77, 214.050 77 C 214.678 77, 214.980 78.908, 214.800 81.750 L 214.500 86.500 218 86.818 C 222.006 87.182, 229 93.198, 229 96.280 C 229 97.311, 227.685 99.469, 226.077 101.077 L 223.154 104 216.212 104 C 210.703 104, 208.726 104.428, 206.635 106.073 L 204 108.145 204.016 114.823 L 204.033 121.500 206.266 117.594 C 209.408 112.100, 212.666 110.037, 219.789 109.030 C 227.294 107.969, 231.246 105.343, 233.386 99.993 C 235.395 94.972, 235.430 90.070, 233.508 82.693 C 229.341 66.695, 219.070 55.980, 206.141 54.144 L 201.500 53.485 200.923 46.992 L 200.345 40.500 200.173 46.643 M 191 58.500 C 191 59.530, 191.655 60.020, 192.750 59.810 C 194.858 59.404, 194.725 57.629, 192.553 57.177 C 191.647 56.988, 191 57.539, 191 58.500 M 207 58.500 C 207 59.325, 207.675 60, 208.500 60 C 209.325 60, 210 59.325, 210 58.500 C 210 57.675, 209.325 57, 208.500 57 C 207.675 57, 207 57.675, 207 58.500 M 182.625 62.798 C 181.744 64.223, 183.754 66.308, 185.399 65.677 C 187.659 64.810, 187.399 62, 185.059 62 C 183.991 62, 182.896 62.359, 182.625 62.798 M 194.500 63 C 194.840 63.550, 195.316 64, 195.559 64 C 195.802 64, 196 63.550, 196 63 C 196 62.450, 195.523 62, 194.941 62 C 194.359 62, 194.160 62.450, 194.500 63 M 213.570 62.887 C 212.817 64.105, 215.665 66.325, 216.956 65.527 C 218.727 64.432, 218.109 62, 216.059 62 C 214.991 62, 213.871 62.399, 213.570 62.887 M 215 64.059 C 215 64.641, 215.450 64.840, 216 64.500 C 216.550 64.160, 217 63.684, 217 63.441 C 217 63.198, 216.550 63, 216 63 C 215.450 63, 215 63.477, 215 64.059 M 223.065 68.500 C 223.064 69.050, 223.724 70.374, 224.532 71.441 C 225.339 72.509, 226 74.127, 226 75.036 C 226 77.637, 222.313 80.313, 218.866 80.215 C 213.535 80.064, 217.116 81.896, 223.013 82.338 C 226.031 82.563, 227.262 82.551, 225.750 82.311 C 222.505 81.795, 222.159 80.402, 225.048 79.485 C 227.288 78.774, 230 80.468, 230 82.579 C 230 83.536, 227.954 84.010, 222.750 84.257 L 215.500 84.603 223.250 84.801 L 231 85 231 82.508 C 231 81.100, 230.131 79.474, 229 78.768 C 227.818 78.030, 227 76.436, 227 74.870 C 227 73.413, 226.115 71.159, 225.033 69.861 C 223.952 68.562, 223.066 67.950, 223.065 68.500 M 184 71 C 184 71.550, 184.450 72, 185 72 C 185.550 72, 186 71.550, 186 71 C 186 70.450, 185.550 70, 185 70 C 184.450 70, 184 70.450, 184 71 M 216 71 C 216 71.550, 216.450 72, 217 72 C 217.550 72, 218 71.550, 218 71 C 218 70.450, 217.550 70, 217 70 C 216.450 70, 216 70.450, 216 71 M 187.581 81.750 L 186.742 87 183.579 87 C 179.320 87, 171.449 94.689, 172.457 97.865 C 173.827 102.180, 177.719 104, 185.576 104 C 189.594 104, 193.160 104.450, 193.500 105 C 193.840 105.550, 194.654 105.987, 195.309 105.971 C 195.964 105.955, 195.030 104.605, 193.234 102.971 C 190.478 100.463, 189.144 100, 184.684 100 C 181.778 100, 178.804 99.438, 178.075 98.750 C 177.006 97.741, 176.838 97.789, 177.205 99 C 177.512 100.012, 180.076 100.865, 185.080 101.621 L 192.500 102.741 186.297 102.871 C 179.058 103.022, 175.662 101.749, 174.089 98.295 L 172.956 95.810 177.228 91.946 C 180.314 89.155, 182.411 88.071, 184.781 88.041 C 188.612 87.993, 189.256 86.835, 188.773 80.864 L 188.420 76.500 187.581 81.750 M 173 80.500 C 173 81.628, 173.702 82.039, 175.250 81.820 C 176.488 81.644, 177.500 81.050, 177.500 80.500 C 177.500 79.950, 176.488 79.356, 175.250 79.180 C 173.702 78.961, 173 79.372, 173 80.500 M 51 83.500 C 51 85.442, 50.487 86, 48.700 86 C 45.609 86, 44 87.803, 44 91.266 C 44 95.995, 45.648 98, 49.535 98 L 53 98 53 89.500 C 53 84.500, 52.588 81, 52 81 C 51.450 81, 51 82.125, 51 83.500 M 178 82.500 L 171.500 83.756 178.250 83.878 C 183.638 83.975, 185 83.697, 185 82.500 C 185 81.675, 184.887 81.055, 184.750 81.122 C 184.613 81.189, 181.575 81.809, 178 82.500 M 21.065 83.878 C 20.479 84.973, 20 87.853, 20 90.279 C 20 95.286, 22.154 98, 26.129 98 C 29.366 98, 31 96.256, 31 92.800 L 31 90 27.750 90.022 L 24.500 90.044 26.894 91.885 C 28.230 92.913, 28.977 94.228, 28.585 94.863 C 27.540 96.554, 23.306 96.239, 22.607 94.418 C 21.473 91.464, 21.994 86.149, 23.571 84.571 C 25.564 82.579, 25.518 82.572, 28.047 85.250 L 30.173 87.500 29.836 85 C 29.556 82.916, 28.887 82.449, 25.815 82.194 C 22.966 81.956, 21.889 82.338, 21.065 83.878 M 90 90 C 90 94.667, 90.417 98, 91 98 C 91.550 98, 92 96.425, 92 94.500 L 92 91 95 91 L 98 91 98 94.583 C 98 97.004, 98.406 98.032, 99.250 97.753 C 100.069 97.482, 100.601 94.697, 100.792 89.670 C 101.035 83.300, 100.823 82, 99.542 82 C 98.446 82, 98 83.013, 98 85.500 L 98 89 95 89 L 92 89 92 85.500 C 92 83.575, 91.550 82, 91 82 C 90.417 82, 90 85.333, 90 90 M 122.500 83 C 122.840 83.550, 123.316 84, 123.559 84 C 123.802 84, 124 83.550, 124 83 C 124 82.450, 123.523 82, 122.941 82 C 122.359 82, 122.160 82.450, 122.500 83 M 78 84.500 C 78 85.325, 77.460 86, 76.800 86 C 75.867 86, 75.867 86.267, 76.800 87.200 C 77.460 87.860, 78 89.848, 78 91.618 C 78 93.388, 78.273 95.548, 78.607 96.418 C 79.270 98.146, 82 98.614, 82 97 C 82 96.450, 81.550 96, 81 96 C 79.708 96, 79.690 88.310, 80.980 87.513 C 81.596 87.131, 81.507 86.184, 80.739 84.954 C 79.286 82.627, 78 82.414, 78 84.500 M 34.459 87.067 C 33.462 88.679, 34.765 89.440, 36.318 88.151 C 37.814 86.910, 39 87.580, 39 89.667 C 39 90.400, 38.155 91, 37.122 91 C 34.533 91, 32.703 93.490, 33.485 95.952 C 33.994 97.556, 34.982 98, 38.048 98 L 41.962 98 41.396 93.250 C 41.085 90.638, 40.657 87.938, 40.446 87.250 C 39.979 85.726, 35.375 85.585, 34.459 87.067 M 56.035 87.934 C 53.627 92.435, 55.608 98, 59.619 98 C 61.226 98, 62.003 98.461, 61.724 99.250 C 61.481 99.938, 60.014 100.404, 58.464 100.288 L 55.647 100.075 57.286 101.715 C 58.631 103.060, 59.382 103.147, 61.463 102.199 L 64 101.043 64 93.521 L 64 86 60.535 86 C 58.133 86, 56.753 86.593, 56.035 87.934 M 67.430 87.322 C 67.124 88.119, 67.015 90.735, 67.187 93.136 L 67.500 97.500 70.372 97.828 C 71.951 98.009, 73.729 97.671, 74.322 97.078 C 75.093 96.307, 74.488 96, 72.200 96 C 70.022 96, 69 95.521, 69 94.500 C 69 93.493, 70.007 93, 72.063 93 L 75.127 93 74.813 89.750 L 74.500 86.500 71.243 86.186 C 69.096 85.979, 67.797 86.366, 67.430 87.322 M 104.067 87.874 C 102.621 90.576, 102.724 94.240, 104.306 96.404 C 106.157 98.936, 110.108 98.083, 111.967 94.750 L 113.500 92 111.968 89.250 C 110.024 85.759, 105.611 84.990, 104.067 87.874 M 115 92 C 115 95.333, 115.444 98, 116 98 C 116.550 98, 117 95.961, 117 93.469 C 117 90.363, 117.472 88.756, 118.500 88.362 C 120.866 87.454, 120.250 86, 117.500 86 L 115 86 115 92 M 122 92 C 122 95.333, 122.444 98, 123 98 C 123.556 98, 124 95.333, 124 92 C 124 88.667, 123.556 86, 123 86 C 122.444 86, 122 88.667, 122 92 M 127 86.934 C 127 87.447, 128.135 88.010, 129.522 88.184 L 132.045 88.500 129.522 92.197 C 126.116 97.189, 126.323 98, 131 98 C 133.200 98, 135 97.550, 135 97 C 135 96.450, 133.875 96, 132.500 96 C 131.125 96, 130 95.766, 130 95.480 C 130 95.194, 131.125 93.178, 132.500 91 C 133.875 88.822, 135 86.806, 135 86.520 C 135 86.234, 133.200 86, 131 86 C 128.800 86, 127 86.420, 127 86.934 M 138.243 87.157 C 136.538 88.862, 136.675 95.485, 138.445 96.954 C 142.567 100.375, 147.436 95.002, 145.425 89.250 C 144.357 86.196, 140.367 85.033, 138.243 87.157 M 148.406 87.386 C 147.552 89.611, 148.405 97.500, 149.500 97.500 C 150.050 97.500, 150.637 95.362, 150.805 92.750 C 151.223 86.225, 153.771 86.167, 154.195 92.672 C 154.590 98.720, 157 99.876, 157 94.018 C 157 88.255, 155.575 86, 151.933 86 C 150.286 86, 148.698 86.624, 148.406 87.386 M 69.688 87.646 C 68.272 89.061, 69.073 91, 71.073 91 C 72.471 91, 73.041 90.457, 72.823 89.333 C 72.466 87.492, 70.759 86.574, 69.688 87.646 M 140.250 87.718 C 139.534 87.975, 139 89.870, 139 92.153 L 139 96.139 141.250 95.820 C 142.945 95.579, 143.574 94.739, 143.801 92.415 C 144.114 89.204, 142.405 86.943, 140.250 87.718 M 46.418 89.353 C 45.306 92.250, 46.407 95.500, 48.500 95.500 C 50.118 95.500, 50.500 94.833, 50.500 92.014 C 50.500 89.486, 50.018 88.435, 48.747 88.190 C 47.783 88.004, 46.735 88.528, 46.418 89.353 M 57.710 90 C 56.893 93.126, 58.045 96, 60.117 96 C 61.647 96, 62 95.251, 62 92 C 62 88.749, 61.647 88, 60.117 88 C 59.074 88, 58 88.893, 57.710 90 M 105.500 90 C 104.561 92.958, 105.863 96, 108.067 96 C 109.655 96, 110 95.287, 110 92 C 110 88.713, 109.655 88, 108.067 88 C 107.004 88, 105.849 88.900, 105.500 90 M 169.597 88.844 C 169.251 89.404, 169.455 90.163, 170.050 90.531 C 171.588 91.481, 172.580 90.180, 171.296 88.896 C 170.578 88.178, 170.019 88.161, 169.597 88.844 M 174.079 88.710 C 174.036 89.375, 172.815 91.018, 171.367 92.361 C 168.141 95.352, 168.612 98.458, 172.951 102.797 C 175.800 105.646, 181 107.626, 181 105.861 C 181 105.388, 180.065 105, 178.923 105 C 176.152 105, 171 99.727, 171 96.891 C 171 95.647, 171.948 93.620, 173.107 92.386 C 174.266 91.152, 174.977 89.548, 174.686 88.821 C 174.323 87.912, 174.133 87.877, 174.079 88.710 M 226.030 88.945 C 226.014 89.740, 227.162 91.603, 228.582 93.086 L 231.165 95.781 229.588 98.830 C 227.788 102.310, 224.383 105, 221.777 105 C 220.800 105, 220 105.480, 220 106.067 C 220 108.878, 228.468 103.929, 230.551 99.901 C 232.474 96.183, 232.378 94.384, 230.173 92.807 C 229.168 92.088, 227.832 90.600, 227.203 89.500 C 226.449 88.179, 226.050 87.991, 226.030 88.945 M 230 89.500 C 230 90.325, 230.450 91, 231 91 C 231.550 91, 232 90.325, 232 89.500 C 232 88.675, 231.550 88, 231 88 C 230.450 88, 230 88.675, 230 89.500 M 36.131 93.342 C 34.907 94.816, 35.591 96, 37.667 96 C 38.400 96, 39 95.100, 39 94 C 39 91.693, 37.740 91.404, 36.131 93.342 M 193.250 94.662 C 191.195 95.491, 191.830 97.601, 194.500 98.818 L 197 99.957 197 96.979 C 197 94.096, 196.072 93.523, 193.250 94.662 M 204 96.567 C 204 98.765, 204.324 99.037, 206.250 98.455 C 209.661 97.424, 210.727 96.071, 208.992 94.974 C 206.130 93.164, 204 93.844, 204 96.567 M 222 99 C 222 99.554, 219.353 100, 216.059 100 C 212.634 100, 209.815 100.491, 209.402 101.159 C 208.317 102.913, 221.088 101.341, 222.936 99.492 C 223.954 98.474, 224.043 98, 223.214 98 C 222.546 98, 222 98.450, 222 99 M 191.446 108.087 C 190.416 109.755, 192.733 111.667, 194.113 110.287 C 195.267 109.133, 194.545 107, 193 107 C 192.515 107, 191.816 107.489, 191.446 108.087 M 206.446 108.087 C 205.416 109.755, 207.733 111.667, 209.113 110.287 C 210.267 109.133, 209.545 107, 208 107 C 207.515 107, 206.816 107.489, 206.446 108.087" stroke="none" fill="#2b7381" fill-rule="evenodd"/><path d="M 197.813 52.683 C 198.534 52.972, 199.397 52.936, 199.729 52.604 C 200.061 52.272, 199.471 52.036, 198.417 52.079 C 197.252 52.127, 197.015 52.364, 197.813 52.683 M 198.158 64 C 198.158 65.375, 198.385 65.938, 198.662 65.250 C 198.940 64.563, 198.940 63.438, 198.662 62.750 C 198.385 62.063, 198.158 62.625, 198.158 64 M 254.458 108 C 254.458 131.375, 254.589 140.938, 254.749 129.250 C 254.909 117.563, 254.909 98.438, 254.749 86.750 C 254.589 75.063, 254.458 84.625, 254.458 108 M 220.079 71.583 C 220.127 72.748, 220.364 72.985, 220.683 72.188 C 220.972 71.466, 220.936 70.603, 220.604 70.271 C 220.272 69.939, 220.036 70.529, 220.079 71.583 M 184.500 80 C 184.160 80.550, 184.359 81, 184.941 81 C 185.523 81, 186 80.550, 186 80 C 186 79.450, 185.802 79, 185.559 79 C 185.316 79, 184.840 79.450, 184.500 80 M 218.750 81.662 C 219.438 81.940, 220.563 81.940, 221.250 81.662 C 221.938 81.385, 221.375 81.158, 220 81.158 C 218.625 81.158, 218.063 81.385, 218.750 81.662 M 183.813 87.683 C 184.534 87.972, 185.397 87.936, 185.729 87.604 C 186.061 87.272, 185.471 87.036, 184.417 87.079 C 183.252 87.127, 183.015 87.364, 183.813 87.683 M 216.269 87.693 C 217.242 87.947, 218.592 87.930, 219.269 87.656 C 219.946 87.382, 219.150 87.175, 217.500 87.195 C 215.850 87.215, 215.296 87.439, 216.269 87.693 M 70.750 93.662 C 71.438 93.940, 72.563 93.940, 73.250 93.662 C 73.938 93.385, 73.375 93.158, 72 93.158 C 70.625 93.158, 70.063 93.385, 70.750 93.662 M 198.286 118.500 C 198.294 121.250, 198.488 122.256, 198.718 120.736 C 198.947 119.216, 198.941 116.966, 198.704 115.736 C 198.467 114.506, 198.279 115.750, 198.286 118.500" stroke="none" fill="#f9fafa" fill-rule="evenodd"/></svg>